HIERARCHY
ROOT Hips
{
	OFFSET -0.179506 -22.333345 2.821913
	CHANNELS 6 Xposition Yposition Zposition Zrotation Yrotation Xrotation 
	JOINT LeftUpLeg
	{
		OFFSET 6.951974 -9.140623 -0.681533
		CHANNELS 3 Zrotation Yrotation Xrotation
		JOINT LeftLeg
		{
			OFFSET 3.427654 -37.519855 -0.449580
			CHANNELS 3 Zrotation Yrotation Xrotation
			JOINT LeftFoot
			{
				OFFSET -1.359570 -39.796059 -4.369333
				CHANNELS 3 Zrotation Yrotation Xrotation
				JOINT LeftToe
				{
					OFFSET 2.635814 -5.579078 11.928840
					CHANNELS 3 Zrotation Yrotation Xrotation
					End Site
					{
						OFFSET 0.000000 0.000000 0.000000
					}
				}
			}
		}
	}
	JOINT RightUpLeg
	{
		OFFSET -6.767048 -9.052170 -0.431982
		CHANNELS 3 Zrotation Yrotation Xrotation
		JOINT RightLeg
		{
			OFFSET -3.829005 -38.256897 -0.885003
			CHANNELS 3 Zrotation Yrotation Xrotation
			JOINT RightFoot
			{
				OFFSET 1.577377 -39.841461 -4.231180
				CHANNELS 3 Zrotation Yrotation Xrotation
				JOINT RightToe
				{
					OFFSET -2.537174 -4.814398 12.334795
					CHANNELS 3 Zrotation Yrotation Xrotation
					End Site
					{
						OFFSET 0.000000 0.000000 0.000000
					}
				}
			}
		}
	}
	JOINT Spine
	{
		OFFSET -0.253288 10.896323 -2.669631
		CHANNELS 3 Zrotation Yrotation Xrotation
		JOINT Spine1
		{
			OFFSET 0.548704 13.518043 0.109247
			CHANNELS 3 Zrotation Yrotation Xrotation
			JOINT Spine2
			{
				OFFSET 0.145701 5.292222 2.542457
				CHANNELS 3 Zrotation Yrotation Xrotation
				JOINT Neck
				{
					OFFSET -0.277840 21.387037 -4.285703
					CHANNELS 3 Zrotation Yrotation Xrotation
					JOINT Head
					{
						OFFSET 0.515184 6.496960 5.134897
						CHANNELS 3 Zrotation Yrotation Xrotation
						End Site
						{
							OFFSET 0.000000 0.000000 0.000000
						}
					}
				}
				JOINT LeftShoulder
				{
					OFFSET 7.884473 12.174932 -3.408961
					CHANNELS 3 Zrotation Yrotation Xrotation
					JOINT LeftArm
					{
						OFFSET 9.097692 3.046888 -0.886815
						CHANNELS 3 Zrotation Yrotation Xrotation
						JOINT LeftForeArm
						{
							OFFSET 25.961220 -1.277207 -2.745643
							CHANNELS 3 Zrotation Yrotation Xrotation
							JOINT LeftHand
							{
								OFFSET 24.923361 0.898606 -0.117091
								CHANNELS 3 Zrotation Yrotation Xrotation
								End Site
								{
									OFFSET 0.000000 0.000000 0.000000
								}
							}
						}
					}
				}
				JOINT RightShoulder
				{
					OFFSET -8.175920 11.883285 -3.861528
					CHANNELS 3 Zrotation Yrotation Xrotation
					JOINT RightArm
					{
						OFFSET -9.601238 3.255117 -0.914307
						CHANNELS 3 Zrotation Yrotation Xrotation
						JOINT RightForeArm
						{
							OFFSET -25.374195 -1.332924 -2.140099
							CHANNELS 3 Zrotation Yrotation Xrotation
							JOINT RightHand
							{
								OFFSET -25.529810 0.777228 -0.555919
								CHANNELS 3 Zrotation Yrotation Xrotation
								End Site
								{
									OFFSET 0.000000 0.000000 0.000000
								}
							}
						}
					}
				}
			}
		}
	}
}
MOTION
Frames: 6
Frame Time: 0.033333
-33.654541 28.349854 95.883583 177.129332 -1.480125 88.560720 -6.654675 -6.394013 5.120275 3.421134 -14.100908 -3.482815 3.045344 11.296518 -2.022620 nan nan nan -1.201188 1.310498 2.603522 0.969801 5.503979 -2.842398 4.277010 -7.312648 -1.895777 nan nan nan -1.912968 2.334472 -2.499857 2.678438 -4.070641 5.601672 -0.005785 0.122839 -2.073610 -5.720663 -6.211920 -0.499437 4.306617 0.682924 -2.504547 -20.913800 -1.644268 1.196283 -64.369831 -5.910723 21.362830 4.661493 -17.027098 -7.254926 1.495732 -19.892420 -24.112910 19.755990 1.537209 -4.051725 60.878091 3.675243 12.081430 -13.905917 21.411274 -23.486571 -5.637393 11.489523 -24.936370 
-33.647747 28.337105 95.873146 177.164742 -1.357014 88.550602 -6.536472 -6.355524 5.087975 3.475938 -14.160292 -3.400542 3.028052 11.293297 -2.134571 nan nan nan -0.993779 1.375371 2.647517 0.873953 5.521553 -2.873345 4.231410 -7.448456 -1.905522 nan nan nan -1.753606 2.290821 -2.516963 2.667531 -4.099358 5.498403 -0.003119 0.127175 -1.928474 -5.775946 -6.137610 -0.369187 4.327973 0.729190 -2.693170 -20.910203 -1.675512 1.183216 -64.390744 -5.868802 21.190626 4.709406 -17.037793 -7.272695 1.261010 -19.886333 -24.139593 19.697045 1.628707 -4.011774 60.894793 3.732222 11.935905 -13.787424 21.395636 -23.279255 -5.417881 11.471927 -24.855990 
-33.551514 28.420881 95.695770 176.589559 -0.942192 88.136214 -5.920884 -5.827346 5.945168 3.408819 -15.065982 -4.199416 3.683280 12.118248 -1.305510 nan nan nan -0.314395 1.856676 3.153160 0.587801 6.198260 -3.006227 4.846570 -8.107886 -2.139434 nan nan nan -1.574129 1.915271 -1.283853 2.798077 -3.436570 2.702407 0.349092 0.690204 0.305780 -6.065755 -7.520929 -0.057435 4.108811 1.735446 -3.321044 -20.008883 -3.115222 -0.081605 -65.543335 -4.620315 20.440985 5.849369 -16.260133 -4.757531 -5.651414 -20.305409 -24.778177 19.645882 1.634145 -4.923187 60.392094 -0.235449 16.965486 -4.293772 24.643658 9.638160 9.147274 6.355785 -0.488692 
-33.551010 28.412844 95.650421 176.555727 -0.920748 88.148232 -5.835471 -5.742226 5.858130 3.325164 -14.986258 -4.138715 3.613747 12.068687 -1.177146 nan nan nan -0.280422 1.821763 3.063595 0.561756 6.193774 -2.937003 4.969061 -8.080920 -2.110833 nan nan nan -1.589384 1.880950 -1.074340 2.765945 -3.341396 2.107816 0.425712 0.736316 0.724690 -6.052487 -7.630565 0.006019 4.258457 1.799388 -3.396897 -19.822097 -3.167475 -0.033845 -65.738770 -4.661449 20.181879 6.048352 -16.285331 -4.666362 -6.834809 -20.290827 -24.354779 19.735684 1.521073 -4.970170 60.224159 -0.180030 16.479692 -4.147729 25.082686 10.129950 11.715611 5.817386 0.390907 
-33.545807 28.358856 95.646675 176.513955 -0.902389 88.407807 -5.768167 -5.756489 5.450649 3.321684 -15.002199 -3.958417 3.636456 12.039914 -1.209235 nan nan nan -0.243029 1.898399 2.718674 0.472462 6.466499 -2.860399 4.970304 -8.104771 -2.107257 nan nan nan -1.526276 1.961434 -1.239729 2.717939 -3.254205 1.927560 0.396879 0.680839 0.724770 -6.110329 -7.721354 0.299551 4.342073 1.805545 -3.524980 -19.768443 -3.218893 -0.007708 -65.743939 -4.550302 20.323881 6.141952 -16.335100 -4.381100 -6.693850 -20.096667 -24.713664 19.478192 1.468395 -5.012148 60.644073 -0.420601 16.521661 -4.229526 25.012889 9.448613 11.416070 6.258224 -1.271516 
-33.535160 28.264101 95.677483 176.519833 -0.941353 88.878131 -5.797339 -5.981094 4.786920 3.646949 -15.241508 -3.593230 3.696038 11.860833 -1.285912 nan nan nan -0.273850 1.950025 2.167821 0.320781 7.153651 -2.798550 4.994110 -8.239853 -2.163411 nan nan nan -1.553470 2.215488 -1.590358 2.737000 -3.154192 1.778392 0.399647 0.594225 0.589410 -6.646557 -8.308834 0.893651 4.621032 2.102379 -3.911870 -19.987538 -3.685655 0.158217 -65.472233 -4.198840 20.401438 6.299246 -16.531474 -3.675586 -6.514678 -20.025446 -26.034086 19.215669 1.154101 -5.228958 61.067896 -0.786631 16.148927 -4.151355 25.126154 9.483132 10.278957 6.387358 -1.899572 
